<?xml version="1.0" standalone="no"?><!DOCTYPE svg PUBLIC "-//W3C//DTD SVG 1.1//EN" "http://www.w3.org/Graphics/SVG/1.1/DTD/svg11.dtd"><svg t="1521179031902" class="icon" style="" viewBox="0 0 1262 1024" version="1.1" xmlns="http://www.w3.org/2000/svg" p-id="1280" xmlns:xlink="http://www.w3.org/1999/xlink" width="39.4375" height="32"><defs><style type="text/css"></style></defs><path d="M1262.485142 644.688321v336.851416c0 23.353144-18.399447 41.752592-41.752592 41.752592H41.752592c-23.353144 0-41.752592-19.107118-41.752592-41.752592V644.688321c0-23.353144 19.107118-41.752592 41.752592-41.752592s41.752592 19.107118 41.752591 41.752592v294.391154h1094.059433V644.688321c0-23.353144 19.107118-41.752592 42.460263-41.752592 24.060815 0 42.460263 18.399447 42.460263 41.752592zM450.786455 475.554941L589.489979 643.98065V42.460263c0-23.353144 19.107118-42.460263 41.752592-42.460263 23.353144 0 42.460263 19.107118 42.460262 42.460263v600.105045l137.288183-167.010367c16.276434-16.276434 43.167934-16.276434 59.444368 0 16.276434 16.276434 16.276434 43.167934 0 60.152039l-208.055287 251.930891c-18.399447 15.568763-45.290947 15.568763-63.690394 0L390.634416 535.70698c-16.276434-16.276434-16.276434-43.167934 0-60.152039 16.276434-16.276434 43.167934-16.276434 60.152039 0z" fill="#fff" p-id="1281"></path></svg>