<?xml version="1.0" encoding="utf-8"?>
<!-- Generator: Adobe Illustrator 21.0.0, SVG Export Plug-In . SVG Version: 6.00 Build 0)  -->
<svg version="1.1" id="图层_1" xmlns="http://www.w3.org/2000/svg" xmlns:xlink="http://www.w3.org/1999/xlink" x="0px" y="0px"
	 viewBox="0 0 515.2 140.8" style="enable-background:new 0 0 515.2 140.8;" xml:space="preserve">
<style type="text/css">
	.st0{fill:#187FC4;}
	.st1{fill:#FABE00;}
</style>
<path class="st0" d="M74.7,70.7l-0.1,0.2l-0.1,0.3c-5,15.6-14.7,29.1-28,38.9C33,120,16.9,125.3,0,125.3v6.9
	c18.4,0,35.9-5.8,50.6-16.7C65,105,75.5,90.4,81,73.5l0.1-0.1l0.1-0.2c5.3-16.3,20.4-27.2,37.6-27.2V39C98.7,39,81,51.7,74.7,70.7"
	/>
<path class="st0" d="M68.8,69.4L68.8,69.4l0-0.1v0c7-21.7,27-36.2,49.9-36.2v-6.9c-25.8,0-48.5,16.5-56.4,41.1l0,0.1l0,0.1l0,0
	C58,80.1,49.7,91.6,38.6,99.7C27.2,108,14.1,112.4,0,112.4v6.9c15.6,0,30.2-4.9,42.7-14.1C54.9,96.3,64.2,83.5,68.8,69.4"/>
<path class="st0" d="M56.5,65.6L56.5,65.6L56.5,65.6l0.1-0.2c4.2-13,12.3-24.3,23.3-32.5c11.3-8.4,24.7-12.8,38.8-12.8v-6.9
	c-15.6,0-30.4,4.9-42.9,14.1C63.5,36.4,54.6,48.8,50,63.3l0,0l0,0l0,0.1c-3.3,10.2-10.1,19.5-19,25.9c-9.2,6.7-19.7,10.2-31,10.2
	v6.9c12.8,0,24.7-4,35-11.5C45.1,87.6,52.7,77.2,56.5,65.6"/>
<path class="st1" d="M68,16.9c-6.6,4.9-12.4,10.6-17.2,17L-0.1,0.2l0,8.3l47,31.2c-1.3,2-2.5,4.1-3.6,6.2L-0.1,17.1l0.1,8.3
	l40.3,26.7c-0.8,2-1.6,4-2.3,6.1L-0.1,32.9l0,8.3l35.5,23.5c-1,2.1-2.2,4-3.6,5.9L-0.1,49.5l0,8.3l27.2,18
	C19.9,82.6,10.3,86.6,0,86.6v6.9c19.8,0,37.3-12.5,43.8-31.1l0,0c0,0,0.3-0.8,0.3-0.8c5-15.7,14.7-29.2,28-39
	c13.6-10.1,29.7-15.4,46.6-15.4V0.2C100.3,0.2,82.8,6,68,16.9"/>
<path d="M255.6,36.1h14.5v14.4h11.8V24.3h-3.5v0h-22.7v-6.6H283l13.3,19l-11.3,13.7h13.3l4.1-5l3.5,5h14.5l-10.3-14.6l9.4-11.6
	h-13.1l-2.4,2.9l-6.7-9.5h8.9c8.9,0,14.1-5.4,14.1-14.2c0-1.4,0-3.6,0-3.6h-11.8v4.8c0,2.8-1.1,3.6-3.7,3.6h-14.2L285,0h-14.4
	l5.9,8.4H247v0h-3.1v42.1h11.8V36.1z"/>
<path d="M320.5,54.7h-4.1h-5.5h-1.8h-11.5H288h-10.7h-9.6h-12.1h-2.2h-5.7h-3.9v23.2h-7.4v9.8H328v-9.8h-7.1V54.7H320.5z
	 M309.1,77.9h-11.5V64.1h11.5V77.9z M288,77.9h-10.7V64.1H288V77.9z M267.7,77.9h-12.1V64.1h12.1V77.9z"/>
<polygon points="167.5,97.2 155.1,114 143.2,97.2 138.4,97.2 153.2,117.4 153.2,132.2 157.2,132.2 157.2,117.4 172.3,97.2 "/>
<path d="M184.6,105.6c-8.1,0.2-12.4,5-12.7,14.1c0.4,8.2,4.5,12.6,12.2,13l0,0h0c8-0.1,12.1-4.6,12.2-13.4
	C196,110.6,192,106,184.6,105.6 M184.3,129.4c-5.3-0.3-8-3.5-8.2-9.7c0.1-6.8,2.8-10.2,8.2-10.4c5.1,0.4,7.7,3.8,8,10.2
	C192.1,126,189.4,129.3,184.3,129.4"/>
<path d="M212.2,105.6l-0.3,0c-3.4,0.1-6.2,1.4-8.2,3.9v-3.2h-3.9v26h3.9v-15.9c0.7-4.6,3.2-6.9,7.5-7.2l0.3,0c1.9,0,3.3,0.5,4.3,1.5
	c1.1,1.1,1.6,3,1.6,5.5v16.1h3.9v-16.4c0.1-3.5-0.8-6.2-2.4-7.9C217.3,106.4,215.1,105.6,212.2,105.6"/>
<path d="M247.8,106.1h-3.9v2.7c-1.9-2-4.6-3.1-8.1-3.2c-7.2,0.5-11,4.9-11.3,13.2c0.1,8.1,3.8,12.3,11.1,12.6c3.8,0,6.6-1,8.3-2.8
	v0.9c0.1,2.5-0.5,4.4-1.7,5.6c-1.3,1.3-3.4,2-6.3,2l-0.3,0c-3.2-0.1-5.7-1.1-7.4-2.8l-0.5-0.5l-2.4,2.4l0.5,0.5
	c2.3,2.5,5.6,3.8,9.8,4c0.3,0,0.7,0,1,0c3.8,0,6.6-1,8.5-3c2-2.1,2.9-5.3,2.8-9.4V106.1z M243.9,120c-0.1,5.5-2.6,8.3-7.7,8.4
	c-5.1-0.1-7.6-3.2-7.7-9.5c0.2-6.3,2.8-9.5,8-9.7c4.5,0.4,6.9,2.8,7.4,7.2V120z"/>
<path d="M266.5,112.4c-6.6-1-9.8-3-9.6-5.9c0.5-3.8,3.4-5.7,8.7-5.9c5.3,0.1,8.2,2.3,9,6.8l0.2,0.8l4.4-1.3l-0.1-0.7
	c-1.3-6.2-5.9-9.4-13.6-9.5c-8.1,0.2-12.3,3.5-12.7,9.7c-0.2,5.2,4,8.4,12.8,9.7c7,0.9,10.4,3.1,10.1,6.4c-0.4,4.3-3.4,6.5-9.2,6.7
	c-6.4,0-9.9-2.8-10.7-8.5l-0.1-0.9l-4.4,1.5l0.1,0.7c1.6,7.1,6.5,10.7,14.5,10.7c0.3,0,0.5,0,0.8,0c8.2-0.4,12.6-3.6,13.2-9.8
	C280.2,117.1,275.7,113.5,266.5,112.4"/>
<path d="M296,105.6l-0.3,0c-3.4,0.2-6.1,1.4-8,3.7V97.2h-4v35.1h4l0-14.7c0.3-5.4,2.8-8.2,7.5-8.4l0.3,0c1.8,0,3.2,0.5,4.1,1.4
	c1.1,1.1,1.6,3,1.6,5.6v16.1h3.9v-16.4c0.1-3.5-0.8-6.2-2.4-7.9C301.1,106.4,298.9,105.6,296,105.6"/>
<path d="M328.5,123.9c-0.8,3.6-3.3,5.3-7.7,5.3c-5.1-0.2-7.7-2.9-8.2-8.3h20v-1.3c-0.2-9.1-4.2-13.8-11.9-14.1
	c-7.8,0.5-12,5.1-12.3,13.9c0.2,8.4,4.5,12.9,12.5,13.2h0c6.2,0,10.1-2.6,11.5-7.8l0.2-0.7l-4-1.1L328.5,123.9z M320.9,109.3
	c4.8,0.1,7.3,2.8,7.6,8.1h-15.6C313.4,112.3,316,109.6,320.9,109.3"/>
<path d="M348.6,105.6l-0.3,0c-3.4,0.1-6.2,1.4-8.2,3.9v-3.2h-3.9v26h3.9v-15.9c0.7-4.6,3.2-6.9,7.5-7.2l0.3,0c1.9,0,3.3,0.5,4.3,1.5
	c1.1,1.1,1.6,3,1.6,5.5v16.1h3.9v-16.4c0.1-3.5-0.8-6.2-2.4-7.9C353.7,106.4,351.5,105.6,348.6,105.6"/>
<path d="M384.2,106.1h-3.9v2.7c-1.9-2-4.6-3.1-8.1-3.2c-7.2,0.5-11,4.9-11.3,13.2c0.1,8.1,3.8,12.3,11,12.6c3.8,0,6.6-1,8.4-2.8v0.9
	c0.1,2.5-0.5,4.4-1.7,5.6c-1.3,1.3-3.4,2-6.3,2l-0.3,0c-3.2-0.1-5.7-1.1-7.4-2.8l-0.5-0.5l-2.4,2.4l0.5,0.5c2.3,2.5,5.6,3.8,9.8,4
	c0.3,0,0.7,0,1,0c3.8,0,6.6-1,8.5-3c2-2.1,2.9-5.3,2.8-9.4V106.1z M380.3,120c-0.1,5.5-2.6,8.3-7.7,8.4c-5.1-0.1-7.6-3.2-7.7-9.5
	c0.2-6.3,2.8-9.5,8-9.7c4.5,0.4,6.9,2.8,7.4,7.2V120z"/>
<polygon points="405.1,97.2 401,97.2 401,132.4 423.8,132.4 423.8,128.9 405.1,128.9 "/>
<path d="M448.6,126.1v-10.9c0.2-3-0.5-5.4-2-7c-1.6-1.7-4.2-2.6-7.6-2.6c-0.2,0-0.5,0-0.7,0l-0.4,0c-6.3,0-10.1,2.6-11.1,7.7
	l-0.1,0.7l3.8,1.4l0.2-0.9c0.6-3.5,3-5.3,7.3-5.3c0.1,0,0.3,0,0.4,0c2.4-0.1,4.2,0.4,5.2,1.5c0.8,0.9,1.2,2.3,1.1,4.1
	c-0.5,0.6-2.2,1.7-8.9,2.2c-6.4,0.7-9.6,3.6-9.6,8.5c0.1,3.2,1.6,7.2,8.5,7.3h0h0c4.6-0.1,8.1-1.4,10.2-3.8c0.2,1.2,0.7,2.2,1.3,2.9
	l0.2,0.3h4.6l-1.1-1.3C448.9,129.8,448.5,128.3,448.6,126.1 M435.7,129.2c-2.5,0.1-4.2-0.4-5.1-1.3c-0.5-0.6-0.8-1.4-0.7-2.4l0-0.1
	l0-0.1c-0.1-1,0.1-1.9,0.7-2.6c1.1-1.3,3.3-2,6.7-2.3c3.5-0.4,5.9-1,7.4-1.9l0,3.1C444.3,126.5,441.3,129,435.7,129.2"/>
<path d="M479.6,105.6l-0.3,0c-3.6,0.1-6.1,1.6-7.6,4.5c-1.2-2.9-3.9-4.5-7.7-4.5c-2.9,0.1-5.1,1.1-6.6,3.1v-2.6h-4v26.1h4v-15.7
	c0.2-4.9,2.2-7.3,6.2-7.4c1.6-0.1,2.7,0.3,3.6,1.1c1.1,1.1,1.6,3.1,1.5,5.9v16.1h3.9v-15.9c0.6-4.6,2.7-7,6.4-7.2
	c1.6-0.1,2.7,0.3,3.6,1.1c1.1,1.1,1.6,3.1,1.5,5.9v16.1h4v-16.4c0.1-3.6-0.8-6.4-2.4-8.1C484.2,106.3,482.2,105.6,479.6,105.6"/>
<path d="M504,105.6c-3.3,0-5.8,1-7.5,3.1v-2.5h-4.1v34.6h4.1v-11.2c1.9,2.1,4.7,3.1,8.4,3.1h0c6.6-0.4,10.1-4.8,10.3-13.3
	C514.8,110.8,511.1,106.1,504,105.6 M503.8,129.2c-4.8,0-7.2-2.7-7.3-8.3l0-3.8c0.4-4.9,2.6-7.4,6.8-7.7c5.2,0.2,7.7,3.6,7.8,10.4
	C511.1,126.1,508.8,129.2,503.8,129.2"/>
<polygon points="218.5,87.9 233.1,87.9 197.7,38.5 197.7,29 197.7,17.2 185.2,17.2 148.2,17.2 148.2,29 185.2,29 185.2,36.3 
	148.2,36.3 148.2,48 167,48 138.2,87.9 151.6,87.9 185.2,41.6 185.2,87.7 197.7,87.7 197.7,58.7 "/>
<polygon points="236.4,8.5 223,8.5 202.7,36.3 216.3,36.3 "/>
<rect x="160.1" y="0.1" width="37.6" height="11.8"/>
<polygon points="420.4,65.2 420.4,54.9 399.5,54.9 399.5,45.9 420.4,45.9 420.4,35.6 399.5,35.6 399.5,27.6 420.4,27.6 420.4,17.2 
	409,17.2 421,0.2 408.3,0.2 396.1,17.2 393.5,17.2 381.5,0.2 368.5,0.2 380.4,17.2 370.9,17.2 365.5,17.2 332.9,17.2 332.9,29 
	350.3,29 325.6,62.9 337.9,62.9 345.8,52 345.8,87.7 356.7,87.7 356.7,50.5 358.7,53.3 370.5,53.3 357.7,35.5 365.5,24.8 
	365.5,27.6 387,27.6 387,35.6 365.5,35.6 365.5,45.9 387,45.9 387,54.9 365.5,54.9 365.5,65.2 387,65.2 387,87.7 399.5,87.7 
	399.5,65.2 "/>
<rect x="342.9" y="0.1" width="16.5" height="11.8"/>
<polygon points="461.4,30.5 445.9,8.5 431.5,8.5 446.8,30.5 "/>
<path d="M439.5,88.2L468.3,48h7.1v20.6c0,13.2,7.4,19.3,21.6,19.3h14.6V76.2h-15.8c-6.2,0-8.7-1.9-8.7-7.6V48h24.3V36.3h-21.7
	l22.1-30.5h-12.9l-22.2,30.5h-1.3V0.1h-11.8v36.1h-34.7V48h25.1l-29,40.2H439.5z"/>
</svg>
