<?xml version="1.0" encoding="utf-8"?>
<!-- Generator: Adobe Illustrator 21.0.0, SVG Export Plug-In . SVG Version: 6.00 Build 0)  -->
<svg version="1.1" xmlns="http://www.w3.org/2000/svg" xmlns:xlink="http://www.w3.org/1999/xlink" x="0px" y="0px"
	 viewBox="0 0 1128 223.2" style="enable-background:new 0 0 1128 223.2;" xml:space="preserve">
<style type="text/css">
	.st0{fill:#20863C;}
	.st1{fill:#177A3B;}
	.st2{fill:#8FBA3D;}
	.st3{fill:#0E357F;}
</style>
<g id="图层_1">
	<g>
		<path class="st0" d="M383.8,163.4c0.5,7.6-2.7,11.6-9.7,12.2c-7,2.2-10.3,0.5-9.7-4.9v-44.6c-10.3,9.2-18.6,15.4-25.1,18.6
			c-10.3,4.9-18.9,5.4-25.9,1.6c-3.2-1.6-4.9-3.8-4.9-6.5c0-2.2,1.6-3.8,4.9-4.9c32.4-10.8,49.4-22.7,51.1-35.7
			c0-2.2-1.1-3.5-3.2-4.1c-7.6,0.5-14.6,1.6-21.1,3.2c-7,2.2-11.9,1.6-14.6-1.6c-1.6-3.2,0-7,4.9-11.3c5.4-3.8,10.5-5.1,15.4-4.1
			c1.6,1.1,5.7,1.6,12.2,1.6c1.6-0.5,3-0.8,4.1-0.8c1.6,0.5,2.4-0.5,2.4-3.2c0-1.6-0.5-5.1-1.6-10.5c0-1.1,0-2.2,0-3.2
			c-2.2-8.1,1.3-12.2,10.5-12.2c9.2,0.5,13.2,4.3,12.2,11.3c-0.5,1.1-0.8,2.4-0.8,4.1c-1.1,4.3-1.4,7.8-0.8,10.5
			c0,2.7,0.8,3.8,2.4,3.2c2.7,0,5.1,0,7.3,0c3.8,0.5,5.7,2.4,5.7,5.7c0,3.8-1.9,5.7-5.7,5.7h-7.3c-2.2,0-3.2,0.5-3.2,1.6
			c-0.5,1.1,0,2.4,1.6,4.1c5.4,6,11.1,11.6,17,17c2.2,2.7,2.2,5.4,0,8.1c-2.7,2.7-5.1,2.7-7.3,0c-1.6-1.6-4.1-4.1-7.3-7.3
			c-1.6-0.5-2.7-0.5-3.2,0c-0.5,0-0.5,0.5,0,1.6C383.8,133.4,383.8,148.2,383.8,163.4z M416.3,79.1c0.5,0,1.9,0.3,4.1,0.8
			c1.1,0.5,2.4,0.8,4.1,0.8c2.2,1.1,3.2,0.3,3.2-2.4V56.4c0-3.8,2.7-5.9,8.1-6.5c8.1,0.5,12.4,3.8,13,9.7v17.8
			c-0.5,2.7,0.5,3.8,3.2,3.2H473c4.9,0.5,7,2.4,6.5,5.7c-0.5,3.8-3.5,5.7-8.9,5.7h-18.6c-2.2,0.5-3.2,1.1-3.2,1.6
			c-0.5,0.5,0,1.4,1.6,2.4c8.6,9.7,26.2,22.2,52.7,37.3c4.3,2.7,4.9,5.4,1.6,8.1c-11.9,11.3-21.4,12.7-28.4,4.1
			c-9.7-11.3-17.8-20.3-24.3-26.7c-1.1-0.5-1.9-0.5-2.4,0c-0.5,0-0.8,0.5-0.8,1.6v46.2c0,7-3.8,10.8-11.3,11.3
			c-6,1.1-8.6-1.6-8.1-8.1v-43.8c0-1.6-1.1-2.2-3.2-1.6c-11.3,18.4-21.6,26.5-30.8,24.3c-3.8,0-6.2-1.1-7.3-3.2
			c-1.1-2.7-0.3-4.9,2.4-6.5c17.3-10.3,28.9-24.8,34.8-43.8v-1.6c-0.5-0.5-1.4-0.8-2.4-0.8c-6.5,2.2-10.8,3-13,2.4
			c-6.5-0.5-8.1-4.3-4.9-11.3C407.1,80.7,410.8,79.1,416.3,79.1z"/>
		<path class="st0" d="M536.2,111.5c-9.7-1.6-15.1-5.9-16.2-13c1.6-7.6,6.2-10.5,13.8-8.9c16.7,7,29.2,10.5,37.3,10.5
			c4.3,1.1,6.5,2.7,6.5,4.9c0,2.2-1.9,3.5-5.7,4.1C557.3,111.8,545.4,112.6,536.2,111.5z M531.3,140.7c-0.5-6.5,3.8-10.5,13-12.2
			c7-1.1,14.6-4.1,22.7-8.9c0.5,0,1.1-0.3,1.6-0.8c1.6-1.1,3.8-1.9,6.5-2.4c4.9,0.5,4.1,4.6-2.4,12.2c-7.6,9.2-15.4,15.4-23.5,18.6
			C538.3,150.9,532.4,148.8,531.3,140.7z M544.3,75.8c-10.8-4.9-14.1-10.3-9.7-16.2c3.8-3.8,8.1-4.3,13-1.6c14,8.6,24,13.2,30,13.8
			c2.2,1.1,2.7,2.7,1.6,4.9c-1.1,1.6-3,2.4-5.7,2.4C559.4,80.2,549.7,79.1,544.3,75.8z M555.6,155.2c-1.6-1.1,0.3-3.5,5.7-7.3
			c19.4-12.4,28.4-32.1,26.7-59.2c-0.5-2.7-1.1-6.2-1.6-10.5c-1.1-4.9-2.2-10-3.2-15.4c-2.2-4.3,0.3-8.4,7.3-12.2
			c3.8-1.6,7.6-1.6,11.3,0c1.1,1.1,3,1.4,5.7,0.8c27.6,0,54.6,0,81,0c3.8,0.5,5.9,3.2,6.5,8.1c0,2.7-1.1,3.8-3.2,3.2
			c-1.1,0-2.7,0-4.9,0c-15.7-1.1-24.9-1.6-27.6-1.6c-3.2,0-4.9,3.8-4.9,11.3c0,2.7,0.5,3.8,1.6,3.2c1.1,0.5,3.2,1.1,6.5,1.6
			c3.8,0,6.5,0,8.1,0c1.1,0,2.2-0.5,3.2-1.6c3.2-1.6,6.5-1.9,9.7-0.8c3.8,2.2,5.9,5.1,6.5,8.9c-0.5,11.3-1.1,22.7-1.6,34
			c-1.6,5.4-6.2,7.6-13.8,6.5c-11.3-2.7-16.5-2.2-15.4,1.6c0,3.2,0.3,8.6,0.8,16.2c0,3.8,0.3,6.8,0.8,8.9c0,11.9-6.5,18.1-19.4,18.6
			c-6.5,0-11.9-2.2-16.2-6.5c-7.6-7.6-8.6-11.3-3.2-11.3c12.4,4.3,18.4,1.6,17.8-8.1c0-5.9,0-11.9,0-17.8c0.5-3.8-5.1-4.1-17-0.8
			c-5.4,2.2-8.4,1.9-8.9-0.8c-1.1-1.1-2.2-4.1-3.2-8.9c0-1.6,0-3,0-4.1c-0.5-4.9-1.1-8.6-1.6-11.3c-1.1-3.8-1.6-7.3-1.6-10.5
			c-0.5-4.9,0.5-9.2,3.2-13c1.1-1.6,5.1-2.2,12.2-1.6c0.5,0,1.3,0,2.4,0c8.6,2.2,12.4,1.4,11.3-2.4c0-2.7,0-4.9,0-6.5
			c0.5-3.2-5.4-4.9-17.8-4.9C607,61.8,601,65,601,71c3.2,51.3-4.6,81-23.5,89.1C567.3,163.4,560,161.7,555.6,155.2z M594.5,154.4
			c11.3-7,20-14.6,25.9-22.7c3.2-3.8,6.8-4.6,10.5-2.4c3.2,4.9,3.5,8.6,0.8,11.3c-8.1,7.6-17.3,14.1-27.6,19.4
			c-4.3,2.7-8.4,3.2-12.2,1.6C589.4,159.6,590.2,157.1,594.5,154.4z M627,96.1c8.1-0.5,15.4-0.8,21.9-0.8c7,0,14.3,0,21.9,0
			c2.2,0.5,3.2-0.5,3.2-3.2c0-2.7-1.1-4.3-3.2-4.9c-19.4-0.5-34.6,0-45.4,1.6C622.1,92,622.6,94.5,627,96.1z M672.3,105.8
			c0-1.6-1.1-2.4-3.2-2.4c-8.1-1.1-22.2-1.1-42.1,0c-2.7,0-3.8,1.6-3.2,4.9c0,3.2,2.2,4.9,6.5,4.9c19.4,0.5,32.9,0,40.5-1.6
			C672.3,112,672.9,110.1,672.3,105.8z M699.9,165c-7,0-13.5-4.1-19.4-12.2c-1.1-1.1-3-3.2-5.7-6.5c-3.8-4.9-6.2-8.4-7.3-10.5
			c-2.7-2.7-3.2-4.9-1.6-6.5c2.7-1.6,5.9-1.6,9.7,0c3.8,2.7,9.2,6,16.2,9.7c7,6,15.7,10,25.9,12.2
			C716.6,159.8,710.7,164.4,699.9,165z"/>
		<path class="st0" d="M741.2,77.4c0-4.9-1.4-7.3-4.1-7.3c-6-1.1-6.5-4.9-1.6-11.3c6.5-5.9,13.5-7.8,21.1-5.7
			c3.8,1.6,8.6,2.2,14.6,1.6c38.9-1.6,75.4-1.6,109.4,0c2.7,0.5,4.1,2.4,4.1,5.7c-0.5,3.2-2.2,4.6-4.9,4.1c-23.8,0-47,0-69.7,0
			c2.7,3.2,3,6.8,0.8,10.5c-1.1,0.5-1.6,1.1-1.6,1.6c0.5,0.5,1.3,0.8,2.4,0.8c0.5,0.5,16.5,0.8,47.8,0.8c3.2,0.5,4.6,2.2,4.1,4.9
			c-1.1,2.7-3.2,4.1-6.5,4.1c-6,0-14.3,0-25.1,0c-2.7,0-4.1,1.9-4.1,5.7c-0.5,4.3,0.3,6.2,2.4,5.7c11.3,0,19.5,0.3,24.3,0.8
			c6.5,0,13.2,0.3,20.3,0.8c2.7,0.5,4.1,1.9,4.1,4.1c0,2.7-1.1,4.1-3.2,4.1h-42.1c-2.2,0.5-3.5,1.1-4.1,1.6c-0.5,1.6,0,2.7,1.6,3.2
			c9.7,6,21.6,13.2,35.7,21.9c5.9,4.9,6.5,8.4,1.6,10.5c14.6,0.5,26.5,0,35.7-1.6c4.3,0,5.7,2.4,4.1,7.3
			c-4.9,16.8-17.8,22.2-38.9,16.2c-15.7-3.8-28.1-6.2-37.3-7.3c-9.7-1.1-24.6-1.6-44.6-1.6c-5.4,0.5-12.4,1.6-21.1,3.2
			c-18.4,3.8-27.6-1.6-27.6-16.2C740.4,116.3,741.2,93.7,741.2,77.4z M794.7,70.2c1.1-3.2,0.3-5.1-2.4-5.7c-5.4,0-10.8,0-16.2,0
			c-13,0.5-18.9,4.1-17.8,10.5c0.5,30.3,1.1,50.8,1.6,61.6c-2.2,7.6,4.9,10.5,21.1,8.9c-5.4-1.1-8.6-2.7-9.7-4.9
			c-1.1-2.2,0.5-4.1,4.9-5.7c17.8-4.3,29.2-11.9,34-22.7c0.5-1.6,0-2.7-1.6-3.2c-13.5,1.1-26.5,3-38.9,5.7c-3.2,1.1-5.4,0.8-6.5-0.8
			c-0.5-1.6,0.3-3.8,2.4-6.5c4.9-5.4,10.5-7.6,17-6.5c1.6,1.1,9.7,0.8,24.3-0.8c3.2,0.5,4.9-1.9,4.9-7.3c0-3.8-1.1-5.7-3.2-5.7
			c-2.2,0-4.3,0-6.5,0c-2.7,0-5.4,0.8-8.1,2.4c-5.4,2.7-10.8,4.6-16.2,5.7c-3.2,1.1-5.1,0.8-5.7-0.8c-0.5-1.1,0.5-2.7,3.2-4.9
			C784.5,83.1,790.9,76.6,794.7,70.2z M858.7,145.5c-6-3.8-14.9-9.7-26.7-17.8c-2.2-1.1-3.5-2.2-4.1-3.2c-3.2-1.6-5.7-1.6-7.3,0
			c-6,9.2-15.4,16.2-28.4,21.1H858.7z"/>
		<path class="st0" d="M1003,66.1c3.8,0,8.6-0.3,14.6-0.8c3.2,0,5.9-0.3,8.1-0.8c2.2,1.1,3.2-2.2,3.2-9.7c0.5-5.9,5.1-9.2,13.8-9.7
			c8.1,0.5,12.7,3.8,13.8,9.7c0.5,6,2.2,8.6,4.9,8.1c15.1,0,34.8,0,59.2,0c3.8,0,6.2,0.8,7.3,2.4c0.5,1.6,0,4.1-1.6,7.3
			c-5.4,10.3-15.7,13-30.8,8.1c-28.1-9.2-58.9-10.8-92.4-4.9c-6,0.5-8.6,4.1-8.1,10.5c0,17.8-0.5,30.3-1.6,37.3
			c-0.5,6.5-2.2,12.2-4.9,17c-8.1,15.7-21.1,23.8-38.9,24.3c-8.6,0-14.1-2.7-16.2-8.1c-3.8-5.9-2.7-9.2,3.2-9.7
			c23.2-1.1,37.3-10.3,42.1-27.6c-6.5,2.7-13.5,3.8-21.1,3.2c-6,0.5-8.6-2.2-8.1-8.1c0-3.8,3-5.4,8.9-4.9c0.5,0.5,1.6,0.8,3.2,0.8
			c8.1,1.1,14.3,1.4,18.6,0.8c0-1.1,0.3-3.5,0.8-7.3c0-2.7,0.3-5.1,0.8-7.3c-7,2.2-14.6,3.2-22.7,3.2c-6.5,0.5-9.7-2.2-9.7-8.1
			c0.5-4.9,4.3-6.8,11.3-5.7c1.1,0.5,3.8,1.4,8.1,2.4c4.3,0.5,8.6,1.1,13,1.6c-1.6-7.6-3-12.2-4.1-13.8c-1.1-12.4,4.1-17,15.4-13.8
			C995.4,65.6,998.7,66.6,1003,66.1z M1004.6,95.3c4.3-7,9.7-10,16.2-8.9c2.7,1.1,5.1,1.1,7.3,0c18.9-3.2,36.2-2.7,51.9,1.6
			c5.4,2.2,10,3,13.8,2.4c9.2,0.5,14,3,14.6,7.3c-0.5,7.6-4.6,11.1-12.2,10.5c-10.8-0.5-17.8,0.5-21.1,3.2c-2.7,2.7-3.2,5.1-1.6,7.3
			c7,16.8,4.3,32.2-8.1,46.2c-17.3,12.4-37.6,12.4-60.8,0c-3.2-1.6-4.3-3.2-3.2-4.9c0.5-1.6,2.7-2.2,6.5-1.6
			c21.6,7,36.7,4.1,45.4-8.9c6.5-16.2,3.8-30-8.1-41.3c-2.2-1.6-2.7-3.2-1.6-4.9c1.6-1.6,4.1-1.9,7.3-0.8c7,4.3,13.5,5.4,19.4,3.2
			c2.2,0,3.5-1.1,4.1-3.2c0.5-1.1,0-2.4-1.6-4.1c-20-7.6-40.5-5.4-61.6,6.5c-3.8,2.7-6.8,2.7-8.9,0
			C1001.1,102.9,1001.9,99.6,1004.6,95.3z"/>
	</g>
</g>
<g id="图层_2">
	<g>
		<path class="st1" d="M0.4,95.1c0,0-10.3-73.7,79.7-86.3c0,0-13.7,14.7-15,32c0,0,2,40.3-17.3,53c0,0-15.3,9.7-18,15.3
			c0,0,31-27.7,61.7-6c0,0,39,28.3,54,35.3c0,0,29.7,14.8,66.3,2.7c0,0-27.3,4-51.8-5c0,0-33.5-13-44.7-26.3c0,0-20.2-16-23.5-16.3
			c0,0,40.5-27,102.3,16c0,0,36.2,25,64.7,21.2c0,0-70.2,82.1-146.3,26.7c0,0-65-62-81.3-8.8c0,0-3.7,36.8,55.3,53.3
			c0,0,94.3,22.3,147.8-39.5c0,0-69.2,98.5-183.3,45c0,0-56.9-30.7-40.7-105.5c0,0,7.5-39.6,32.8-65.3c0,0-29,10.3-41.3,61
			C1.7,97.5,0.6,97.9,0.4,95.1z"/>
		<path class="st2" d="M95.4,28.1c0,0,31.7-58.8,97.7-6.3c0,0-20.2-1.3-31.8,10.2c0,0-38.2,39.7-71.8,14.8c0,0-3.7-0.8-10.5,10
			c0,0,11-39.5,71-43.5C149.9,13.3,120,3.8,95.4,28.1z"/>
		<path class="st2" d="M184.4,32.7c0,0,27.8-10.4,34.5,26.4c0,0-6.4-6.3-13.6-5.9c0,0-24.3,2.1-28.3-16c0,0-1-1.3-6.4,0.3
			c0,0,15.2-10,36.4,6.2C207,43.6,199.8,31.8,184.4,32.7z"/>
		<path class="st3" d="M146.7,195.6c0,0-26.8,1.3-56.2-37.2c0,0-23.5-25.7-37.3-12.8c0,0-10.7,11.5,1.8,24.5
			C55,170.1,75.4,199.1,146.7,195.6z"/>
	</g>
</g>
</svg>
